<svg width="99" height="104" viewBox="0 0 99 104" fill="none" xmlns="http://www.w3.org/2000/svg">
<path d="M5.46875 96.4629L12.0312 80.5352C19.0495 85.457 25.9538 87.918 32.7441 87.918C43.1803 87.918 48.3984 84.2721 48.3984 76.9805C48.3984 73.5625 47.168 70.304 44.707 67.2051C42.2461 64.1061 37.1647 60.6426 29.4629 56.8145C21.8066 52.9408 16.6341 49.7734 13.9453 47.3125C11.3021 44.806 9.2513 41.8438 7.79297 38.4258C6.38021 35.0078 5.67383 31.2253 5.67383 27.0781C5.67383 19.3307 8.49935 12.9049 14.1504 7.80078C19.847 2.69661 27.1387 0.144531 36.0254 0.144531C47.6009 0.144531 56.1003 2.30924 61.5234 6.63867L56.123 21.9512C49.8796 17.485 43.2943 15.252 36.3672 15.252C32.2656 15.252 29.0755 16.3457 26.7969 18.5332C24.5638 20.6751 23.4473 23.4779 23.4473 26.9414C23.4473 32.6836 29.8047 38.6536 42.5195 44.8516C49.2188 48.1328 54.0495 51.1634 57.0117 53.9434C59.974 56.6777 62.2298 59.8906 63.7793 63.582C65.3288 67.2279 66.1035 71.3066 66.1035 75.8184C66.1035 83.9303 62.8906 90.6068 56.4648 95.8477C50.0846 101.089 41.5169 103.709 30.7617 103.709C21.4193 103.709 12.9883 101.294 5.46875 96.4629Z" fill="#402A27"/>
<circle cx="91" cy="94" r="8" fill="#FF7954"/>
</svg>
