<svg width="57" height="57" viewBox="0 0 57 57" fill="none" xmlns="http://www.w3.org/2000/svg">
<rect width="57" height="57" rx="10" fill="#FFCC20"/>
<path d="M13.4712 41.4574L15.7111 36.021C18.1065 37.7009 20.4631 38.5409 22.7808 38.5409C26.3428 38.5409 28.1238 37.2965 28.1238 34.8077C28.1238 33.6411 27.7039 32.5289 26.8639 31.4712C26.0239 30.4135 24.2896 29.2313 21.6608 27.9247C19.0476 26.6025 17.2821 25.5215 16.3644 24.6815C15.4622 23.826 14.7622 22.8149 14.2645 21.6483C13.7823 20.4817 13.5412 19.1907 13.5412 17.7752C13.5412 15.1309 14.5056 12.9376 16.4344 11.1955C18.3787 9.45335 20.8675 8.58228 23.9007 8.58228C27.8516 8.58228 30.7526 9.32113 32.6036 10.7988L30.7604 16.0253C28.6294 14.5009 26.3817 13.7387 24.0174 13.7387C22.6174 13.7387 21.5286 14.112 20.7509 14.8586C19.9887 15.5897 19.6076 16.5463 19.6076 17.7285C19.6076 19.6884 21.7775 21.7261 26.1173 23.8416C28.4038 24.9615 30.0526 25.9959 31.0637 26.9447C32.0748 27.878 32.8447 28.9747 33.3736 30.2346C33.9025 31.479 34.1669 32.8711 34.1669 34.4111C34.1669 37.1798 33.0703 39.4586 30.877 41.2474C28.6994 43.0362 25.7751 43.9306 22.1041 43.9306C18.9154 43.9306 16.0377 43.1062 13.4712 41.4574Z" fill="white"/>
<circle cx="42.6644" cy="40.6168" r="2.73054" fill="white"/>
</svg>
