<svg width="26" height="26" viewBox="0 0 26 26" fill="none" xmlns="http://www.w3.org/2000/svg">
<rect x="3.99622" y="3.99625" width="18.0075" height="18.0075" rx="3" stroke="#66433E" stroke-width="1.5" stroke-linecap="round" stroke-linejoin="round"/>
<path d="M8.49811 13C8.49811 12.4475 8.94601 11.9996 9.49852 11.9996H10.1133C10.6423 11.9996 11.112 12.3381 11.2793 12.84V12.84C11.4158 13.2496 11.3274 13.7008 11.0465 14.0286L8.49811 17.0017H11.4994" stroke="#66433E" stroke-width="1.5" stroke-linecap="round" stroke-linejoin="round"/>
<path d="M14.5006 13C14.5006 12.4475 14.9485 11.9996 15.501 11.9996H16.1158C16.6448 11.9996 17.1145 12.3381 17.2818 12.84V12.84C17.4183 13.2496 17.3299 13.7008 17.049 14.0286L14.5006 17.0017H17.5019" stroke="#66433E" stroke-width="1.5" stroke-linecap="round" stroke-linejoin="round"/>
<path d="M8.99835 7.99792H17.0017" stroke="#66433E" stroke-width="1.5" stroke-linecap="round" stroke-linejoin="round"/>
</svg>
