<svg width="24" height="18" viewBox="0 0 24 18" fill="none" xmlns="http://www.w3.org/2000/svg">
<g clip-path="url(#clip0)">
<path d="M1.63636 18H5.45455V8.72726L0 4.63635V16.3636C0 17.2691 0.733636 18 1.63636 18Z" fill="#4285F4"/>
<path d="M18.5454 18H22.3636C23.269 18 24 17.2664 24 16.3636V4.63635L18.5454 8.72726" fill="#34A853"/>
<path d="M18.5454 1.63637V8.72728L24 4.63637V2.45455C24 0.430912 21.69 -0.722724 20.0727 0.490912" fill="#FBBC04"/>
<path d="M5.45459 8.72726V1.63635L12 6.54544L18.5455 1.63635V8.72726L12 13.6364" fill="#EA4335"/>
<path d="M0 2.45455V4.63637L5.45455 8.72728V1.63637L3.92727 0.490912C2.30727 -0.722724 0 0.430912 0 2.45455Z" fill="#C5221F"/>
</g>
<defs>
<clipPath id="clip0">
<rect width="24" height="18" fill="white"/>
</clipPath>
</defs>
</svg>
