<svg width="24" height="24" viewBox="0 0 24 24" fill="none" xmlns="http://www.w3.org/2000/svg">
<path d="M12.0003 3C11.5403 3 11.0703 3.04 10.6003 3.14C7.84032 3.67 5.64032 5.9 5.12032 8.66C4.64032 11.27 5.60032 13.67 7.34032 15.22C7.77032 15.6 8.00032 16.13 8.00032 16.69V19C8.00032 20.1 8.90032 21 10.0003 21H10.2803C10.6303 21.6 11.2603 22 12.0003 22C12.7403 22 13.3803 21.6 13.7203 21H14.0003C15.1003 21 16.0003 20.1 16.0003 19V16.69C16.0003 16.14 16.2203 15.6 16.6403 15.23C18.0903 13.95 19.0003 12.08 19.0003 10C19.0003 6.13 15.8703 3 12.0003 3ZM14.0003 17H10.0003V16H14.0003V17ZM10.0003 19V18H14.0003V19H10.0003ZM15.3103 13.74C15.2203 13.82 15.1503 13.92 15.0703 14H8.92032C8.84032 13.91 8.77032 13.81 8.68032 13.73C7.36032 12.55 6.77032 10.79 7.09032 9.03C7.45032 7.09 9.05032 5.48 10.9803 5.1C11.3203 5.03 11.6603 5 12.0003 5C14.7603 5 17.0003 7.24 17.0003 10C17.0003 11.43 16.3903 12.79 15.3103 13.74Z" fill="#FF7354"/>
<path d="M12.5 11H11.5V14H12.5V11Z" fill="#FF7354"/>
<path d="M10.38 8.87383L9.67285 9.58093L11.7942 11.7022L12.5013 10.9951L10.38 8.87383Z" fill="#FF7354"/>
<path d="M11.5019 11.0052L12.209 11.7123L14.3303 9.59098L13.6232 8.88388L11.5019 11.0052Z" fill="#FF7354"/>
</svg>
