<svg width="25" height="24" viewBox="0 0 25 24" fill="none" xmlns="http://www.w3.org/2000/svg">
<path d="M21.447 1.50012H8.55301C7.97534 1.50012 7.5 1.97546 7.5 2.55313V3.75005L14.7674 6.00019L22.5 3.75005V2.55313C22.5 1.97546 22.0246 1.50012 21.447 1.50012Z" fill="#0364B8"/>
<path d="M23.7374 13.0539C23.8473 12.7086 23.935 12.3567 23.9999 12.0002C24 11.8218 23.9047 11.6565 23.7502 11.5674L23.7405 11.5621L23.7374 11.5607L15.6089 6.93016C15.5739 6.90746 15.5375 6.88663 15.5002 6.86786C15.1855 6.71185 14.8152 6.71185 14.5004 6.86786C14.4631 6.88663 14.4268 6.90736 14.3917 6.93016L6.26322 11.5607L6.26017 11.5621L6.25035 11.5674C6.09598 11.6565 6.00062 11.8218 6.00073 12.0002C6.06565 12.3567 6.15336 12.7086 6.26322 13.0539L14.8822 19.3576L23.7374 13.0539Z" fill="#0A2767"/>
<path d="M18.0001 3.75006H12.7501L11.2343 6.0002L12.7501 8.25013L18.0001 12.7501H22.5V8.25013L18.0001 3.75006Z" fill="#28A8EA"/>
<path fill-rule="evenodd" clip-rule="evenodd" d="M7.5 3.75006H12.75V8.25002H7.5V3.75006Z" fill="#0078D4"/>
<path fill-rule="evenodd" clip-rule="evenodd" d="M18 3.75006H22.5V8.25002H18V3.75006Z" fill="#50D9FF"/>
<path d="M18 12.7501L12.75 8.25012H7.5V12.7501L12.75 17.2501L20.874 18.5761L18 12.7501Z" fill="#0364B8"/>
<path fill-rule="evenodd" clip-rule="evenodd" d="M12.75 8.25012H18V12.7501H12.75V8.25012Z" fill="#0078D4"/>
<path fill-rule="evenodd" clip-rule="evenodd" d="M7.5 12.7501H12.75V17.25H7.5V12.7501Z" fill="#064A8C"/>
<path fill-rule="evenodd" clip-rule="evenodd" d="M18 12.7501H22.5V17.25H18V12.7501Z" fill="#0078D4"/>
<path d="M15.1434 18.9135L6.29785 12.4635L6.66835 11.8118C6.66835 11.8118 14.7271 16.4017 14.85 16.4708C14.9519 16.5117 15.0665 16.5084 15.1659 16.4617C15.2805 16.3973 23.3648 11.7893 23.3648 11.7893L23.7368 12.4411L15.1434 18.9135Z" fill="#0A2767" fill-opacity="0.498039"/>
<path d="M23.7502 12.4328L23.7405 12.4388L23.7382 12.4403L15.6098 17.0709C15.2818 17.2823 14.8664 17.3082 14.5148 17.1391L17.346 20.9348L23.5365 22.2826V22.2857C23.8283 22.0745 24.0016 21.7354 24.0015 21.3751V12.0001C24.0016 12.1784 23.9061 12.3438 23.7518 12.4328H23.7502Z" fill="#1490DF"/>
<path d="M24 21.3751V20.8217L16.5127 16.5556L15.6089 17.0701C15.2811 17.2815 14.8657 17.3075 14.514 17.1383L17.3452 20.9341L23.5358 22.2818V22.2849C23.8276 22.0737 24.0008 21.7346 24.0008 21.3743L24 21.3751Z" fill="black" fill-opacity="0.047059"/>
<path d="M23.9626 21.6624L15.7552 16.9869L15.6089 17.0701C15.2811 17.2816 14.8657 17.3075 14.514 17.1383L17.3452 20.9341L23.5358 22.2818V22.2849C23.7458 22.1326 23.8969 21.9123 23.9632 21.6616L23.9626 21.6624Z" fill="black" fill-opacity="0.098039"/>
<path d="M6.26238 12.4426V12.4351H6.25497L6.23238 12.4201C6.08685 12.3306 5.99848 12.171 5.99989 12.0001V21.3766C5.99989 21.9929 6.50709 22.5001 7.12349 22.5001H22.875C22.9686 22.4992 23.0619 22.4866 23.1525 22.4626C23.1995 22.4544 23.245 22.4393 23.2875 22.4177C23.3035 22.416 23.3187 22.4109 23.3325 22.4026C23.3938 22.3775 23.4518 22.3448 23.505 22.3051L23.535 22.2826L6.26238 12.4426Z" fill="#28A8EA"/>
<path d="M13.5 18.5004V6.25069C13.4984 5.7028 13.0482 5.25255 12.5003 5.25092H7.52333V10.8428L6.26249 11.5614L6.25954 11.5629L6.24983 11.5681C6.09535 11.6574 6 11.8226 6 12.0008V19.5031V19.5001H12.5003C13.0482 19.4985 13.4984 19.0482 13.5 18.5004Z" fill="black" fill-opacity="0.098039"/>
<path d="M12.7501 19.2504V7.00063C12.7485 6.45285 12.2981 6.0026 11.7503 6.00085H7.52333V10.8428L6.26249 11.5614L6.25954 11.5629L6.24983 11.5681C6.09535 11.6574 6 11.8226 6 12.0008V20.2532V20.2501H11.7503C12.2981 20.2485 12.7485 19.7982 12.7501 19.2504ZM12.7501 17.7504V7.00063C12.7485 6.45285 12.2981 6.0026 11.7503 6.00085H7.52333V10.8428L6.26249 11.5614L6.25954 11.5629L6.24983 11.5681C6.09535 11.6574 6 11.8226 6 12.0008V18.7531V18.7501H11.7503C12.2981 18.7485 12.7485 18.2983 12.7501 17.7504ZM12.0001 17.7504V7.00063C11.9984 6.45285 11.5482 6.0026 11.0004 6.00085H7.52333V10.8428L6.26249 11.5614L6.25954 11.5629L6.24983 11.5681C6.09535 11.6574 6 11.8226 6 12.0008V18.7531V18.7501H11.0004C11.5482 18.7485 11.9984 18.2983 12.0001 17.7504Z" fill="black" fill-opacity="0.2"/>
<path d="M0.999773 6.00018H10.9995C11.5479 6.00018 11.9992 6.45141 11.9992 6.99985V16.9996C11.9992 17.5481 11.5479 17.9994 10.9995 17.9994H0.999773C0.451338 17.9994 0 17.5481 0 16.9996V6.99985C0 6.45141 0.451338 6.00018 0.999773 6.00018Z" fill="#0078D4"/>
<path d="M2.90029 10.101C3.16594 9.53493 3.59491 9.06112 4.13178 8.74059C4.72669 8.39998 5.40408 8.23034 6.08932 8.25008C6.72395 8.23612 7.35039 8.39704 7.8998 8.71506C8.41682 9.02293 8.83324 9.4746 9.09824 10.0148C9.38692 10.6101 9.53092 11.2651 9.51827 11.9266C9.53234 12.6179 9.38408 13.3031 9.08559 13.9269C8.8147 14.4862 8.38573 14.9541 7.8518 15.2724C7.281 15.6004 6.63121 15.7657 5.97303 15.7501C5.32466 15.7655 4.68436 15.6028 4.12207 15.2798C3.60102 14.9714 3.17958 14.5193 2.90858 13.9778C2.61805 13.3911 2.4724 12.7432 2.48408 12.0886C2.4712 11.4031 2.61379 10.7237 2.90105 10.101H2.90029ZM4.21273 13.2945C4.35445 13.6525 4.59479 13.9631 4.90583 14.19C5.22232 14.4117 5.60177 14.526 5.98797 14.5163C6.39949 14.5326 6.80522 14.4147 7.14375 14.1803C7.45097 13.9534 7.68499 13.6412 7.81656 13.2825C7.9645 12.8828 8.03737 12.4592 8.03181 12.0331C8.03639 11.6032 7.96788 11.1755 7.82933 10.7686C7.70714 10.4023 7.48152 10.0789 7.17976 9.83789C6.85017 9.59177 6.44553 9.46674 6.03456 9.48387C5.63995 9.47361 5.252 9.5886 4.92678 9.81236C4.60996 10.0401 4.36427 10.3533 4.21873 10.7154C3.89689 11.5444 3.89504 12.4643 4.2135 13.2945H4.21273Z" fill="white"/>
</svg>
